<?xml version="1.0" encoding="utf-8"?>
<!-- Generator: Adobe Illustrator 30.6.0, SVG Export Plug-In . SVG Version: 9.03 Build 0)  -->
<svg version="1.0" id="Camada_1" xmlns="http://www.w3.org/2000/svg" xmlns:xlink="http://www.w3.org/1999/xlink" x="0px" y="0px"
	 viewBox="0 0 1920 428" style="enable-background:new 0 0 1920 428;" xml:space="preserve">
<style type="text/css">
	.st0{fill:#DE8F6E;}
	.st1{fill:#00C2C2;}
	.st2{fill:#006DDF;}
	.st3{fill:#BCE784;}
	.st4{fill:#036578;}
</style>
<g>
	<g>
		<path class="st0" d="M535.77,356.35c0-12.92,9.77-22.75,22.69-22.75c7.65,0,14.71,3.65,19.37,10.38l-6.93,4.95
			c-3.45-5.21-7.94-7.19-12.43-7.19c-8.04,0-13.67,6.05-13.67,14.61c0,8.59,5.86,14.62,13.9,14.62c7.36,0,11.49-4.33,12.5-9.02
			h-13.38v-7.58h22.27c0.13,1.14,0.16,2.44,0.16,3.55c0,11.36-8.01,21.19-21.55,21.19C545.8,379.11,535.77,369.28,535.77,356.35z"/>
		<path class="st0" d="M592.92,334.25h31.44v7.62h-22.66v10.19h19.66v7.62h-19.66v11.2h23.14v7.58h-31.93V334.25z"/>
		<path class="st0" d="M641.6,363.97c2.08,4.26,6.05,7.19,11.36,7.19c4.23,0,7.58-2.05,7.58-4.92c0-2.93-3.29-4.49-8.56-6.15
			c-8.5-2.67-15.43-5.27-15.43-13.8c0-8.33,8.17-12.7,15.66-12.7c8.01,0,13.54,4.69,16.34,9.6l-6.77,4.82
			c-1.92-3.22-5.11-6.48-9.8-6.48c-3.42,0-6.45,1.82-6.45,4.72c0,3.55,3.22,4.07,8.76,6.02c8.3,2.93,15.2,5.18,15.2,13.9
			c0,8.66-8.76,12.92-16.63,12.92c-8.53,0-15.1-4.46-17.74-10.45L641.6,363.97z"/>
		<path class="st0" d="M676.67,334.25h36.39v7.81h-13.8v36.39h-8.76v-36.39h-13.83V334.25z"/>
		<path class="st0" d="M730.99,334.25h10.09l17.87,44.2h-9.37l-3.26-8.66h-20.51l-3.29,8.66h-9.37L730.99,334.25z M724.44,326.31
			c2.34-4.17,4.95-5.96,7.71-5.96c3.16,0,5.66,2.9,8.07,2.9c1.63,0,2.7-0.85,4-2.73l3.42,3.22c-2.28,4.07-4.75,5.79-7.94,5.79
			c-2.8,0-4.66-2.12-6.84-2.57c-0.65-0.13-1.24-0.2-1.79-0.1c-1.17,0.19-2.15,1.33-3.09,2.57L724.44,326.31z M743.78,362.8
			l-7.71-19.37l-7.78,19.37H743.78z"/>
		<path class="st0" d="M765.41,356.45c0-13.38,9.77-22.85,23.14-22.85c13.44,0,23.18,9.51,23.18,22.85
			c0,13.35-9.73,22.66-23.18,22.66C775.17,379.11,765.41,369.8,765.41,356.45z M788.59,370.94c8.27,0,14.13-5.86,14.13-14.52
			c0-8.59-5.86-14.61-14.13-14.61c-8.2,0-14.13,6.02-14.13,14.61C774.46,365.08,780.41,370.94,788.59,370.94z"/>
		<path class="st0" d="M845.88,334.29h18.29c13.12,0,22.82,9.47,22.82,22.1c0,12.69-9.7,22.1-22.82,22.1h-18.29V334.29z
			 M854.67,370.91h9.24c8.4,0,14.1-6.32,14.1-14.52c0-8.14-5.7-14.55-14.1-14.55h-9.24V370.91z"/>
		<path class="st0" d="M900.03,334.25h31.45v7.62h-22.66v10.19h19.66v7.62h-19.66v11.2h23.15v7.58h-31.93V334.25z"/>
		<path class="st0" d="M969.82,363.97c2.08,4.26,6.05,7.19,11.36,7.19c4.23,0,7.58-2.05,7.58-4.92c0-2.93-3.29-4.49-8.56-6.15
			c-8.5-2.67-15.43-5.27-15.43-13.8c0-8.33,8.17-12.7,15.66-12.7c8.01,0,13.54,4.69,16.34,9.6l-6.77,4.82
			c-1.92-3.22-5.11-6.48-9.8-6.48c-3.42,0-6.44,1.82-6.44,4.72c0,3.55,3.22,4.07,8.76,6.02c8.3,2.93,15.2,5.18,15.2,13.9
			c0,8.66-8.76,12.92-16.63,12.92c-8.53,0-15.1-4.46-17.74-10.45L969.82,363.97z"/>
		<path class="st0" d="M1004.79,378.46l17.84-44.2h10.09l17.87,44.2h-9.37l-3.25-8.66h-20.51l-3.29,8.66H1004.79z M1035.42,362.8
			l-7.71-19.37l-7.78,19.37H1035.42z"/>
		<path class="st0" d="M1059.5,361.66v-27.41h8.76v27.21c0,5.99,4.3,9.77,10.16,9.77s10.16-3.78,10.16-9.77v-27.21h8.76v27.41
			c0,10.61-7.58,17.45-18.91,17.45S1059.5,372.27,1059.5,361.66z M1075.31,330.51l5.11-10.87h9.51l-7.58,10.87H1075.31z"/>
		<path class="st0" d="M1112.73,334.29h18.29c13.12,0,22.82,9.47,22.82,22.1c0,12.69-9.7,22.1-22.82,22.1h-18.29V334.29z
			 M1121.52,370.91h9.24c8.4,0,14.09-6.32,14.09-14.52c0-8.14-5.7-14.55-14.09-14.55h-9.24V370.91z"/>
		<path class="st0" d="M1166.88,334.25h31.45v7.62h-22.66v10.19h19.66v7.62h-19.66v11.2h23.14v7.58h-31.93V334.25z"/>
		<path class="st0" d="M1230.03,356.35c0-12.92,9.77-22.75,22.69-22.75c8.14,0,15.46,4.13,19.79,11.04l-6.93,4.95
			c-2.96-4.88-7.23-7.84-12.86-7.84c-8.04,0-13.67,6.05-13.67,14.61c0,8.59,5.86,14.62,13.9,14.62c5.44,0,9.7-2.47,13.38-7.62
			l6.48,4.69c-4.26,7.16-11.85,11.07-19.86,11.07C1240.09,379.11,1230.03,369.28,1230.03,356.35z"/>
		<path class="st0" d="M1281.81,356.45c0-13.38,9.77-22.85,23.14-22.85c13.44,0,23.18,9.51,23.18,22.85
			c0,13.35-9.73,22.66-23.18,22.66C1291.57,379.11,1281.81,369.8,1281.81,356.45z M1304.98,370.94c8.27,0,14.13-5.86,14.13-14.52
			c0-8.59-5.86-14.61-14.13-14.61c-8.2,0-14.13,6.02-14.13,14.61C1290.86,365.08,1296.81,370.94,1304.98,370.94z"/>
		<path class="st0" d="M1341.16,334.25h9.31l14.26,29.43l14.22-29.43h9.31v44.2h-8.79v-27.11l-11.91,24.15h-5.7l-11.91-24.15v27.11
			h-8.79V334.25z"/>
		<path class="st0" d="M1425.28,334.25h31.45v7.62h-22.66v10.19h19.66v7.62h-19.66v11.2h23.14v7.58h-31.93V334.25z"/>
		<path class="st0" d="M1481.25,355.8l-15.69-21.55h10.51l10.55,15.04l10.55-15.04h10.55l-15.69,21.55l16.6,22.66h-10.55
			l-11.46-16.21l-11.43,16.21h-10.55L1481.25,355.8z"/>
		<path class="st0" d="M1513.72,356.35c0-12.92,9.77-22.75,22.69-22.75c8.14,0,15.46,4.13,19.79,11.04l-6.93,4.95
			c-2.96-4.88-7.23-7.84-12.86-7.84c-8.04,0-13.67,6.05-13.67,14.61c0,8.59,5.86,14.62,13.9,14.62c5.44,0,9.7-2.47,13.38-7.62
			l6.48,4.69c-4.26,7.16-11.85,11.07-19.86,11.07C1523.78,379.11,1513.72,369.28,1513.72,356.35z"/>
		<path class="st0" d="M1568.36,334.25h31.45v7.62h-22.66v10.19h19.66v7.62h-19.66v11.2h23.14v7.58h-31.93V334.25z"/>
		<path class="st0" d="M1645.88,378.46h-32.58v-44.2h8.79v36.62h23.8V378.46z"/>
		<path class="st0" d="M1688.57,334.25v7.62h-22.66v10.19h19.66v7.62h-19.66v11.2h23.14v7.58h-31.93v-44.2H1688.57z M1662.17,330.57
			l9.34-12.04h4.39l9.34,12.04h-7.39l-4.17-5.79l-4.17,5.79H1662.17z"/>
		<path class="st0" d="M1702.06,378.46v-44.2h7.98l24.45,30.34v-30.34h8.79v44.2h-8.11l-24.31-30.01v30.01H1702.06z"/>
		<path class="st0" d="M1756.28,356.35c0-12.92,9.77-22.75,22.69-22.75c8.14,0,15.46,4.13,19.79,11.04l-6.93,4.95
			c-2.96-4.88-7.23-7.84-12.86-7.84c-8.04,0-13.67,6.05-13.67,14.61c0,8.59,5.86,14.62,13.9,14.62c5.44,0,9.7-2.47,13.38-7.62
			l6.48,4.69c-4.26,7.16-11.85,11.07-19.86,11.07C1766.34,379.11,1756.28,369.28,1756.28,356.35z"/>
		<path class="st0" d="M1819.7,378.46h-8.79v-44.2h8.79V378.46z"/>
		<path class="st0" d="M1830.2,378.46l17.84-44.2h10.09l17.87,44.2h-9.37l-3.25-8.66h-20.51l-3.29,8.66H1830.2z M1860.83,362.8
			l-7.71-19.37l-7.78,19.37H1860.83z"/>
	</g>
	<g>
		
			<rect x="131.46" y="142.32" transform="matrix(0.7071 0.7071 -0.7071 0.7071 244.4871 -94.9055)" class="st1" width="210.7" height="210.7"/>
		<g>
			<polygon class="st2" points="385.79,247.67 236.8,98.68 385.79,247.67 			"/>
			<path class="st2" d="M236.8,98.68l-42.64-42.64c-41.14-41.14-107.84-41.14-148.99,0s-41.14,107.84,0,148.99l42.64,42.64
				L236.8,98.68z"/>
		</g>
		<path class="st3" d="M428.93,55.55c-41.14-41.14-107.84-41.14-148.99,0L236.8,98.68l148.99,148.99l43.13-43.13
			C470.07,163.39,470.07,96.69,428.93,55.55z"/>
	</g>
	<g>
		<g>
			<path class="st4" d="M584.55,264.96c0,8.59-3.85,12.44-12.44,12.44h-23.99c-8.59,0-12.44-3.85-12.44-12.44V82.5
				c0-8.59,3.85-12.44,12.44-12.44h61.61c38.5,0,87.38,14.81,87.38,75.23c0,60.42-48.87,72.86-87.67,72.86h-24.88V264.96z
				 M612.69,179.36c19.25,0,36.73-9.18,36.73-34.06c0-24.88-17.48-33.77-36.73-33.77l-28.14-0.3v67.83L612.69,179.36z"/>
			<path class="st4" d="M754.86,266.44c0,7.41-3.56,10.96-10.96,10.96h-25.47c-7.41,0-10.96-3.55-10.96-10.96V76.87
				c0-6.81,2.37-10.07,9.18-11.85l27.25-6.81c1.19-0.3,2.37-0.59,3.56-0.59c4.74,0,7.41,3.26,7.41,8.89V266.44z"/>
			<path class="st4" d="M885.47,254.59c-8.29,16.29-24.88,26.36-47.98,26.36c-35.54,0-56.57-24.58-56.57-62.79v-77.9
				c0-7.41,3.56-10.96,10.96-10.96h25.47c7.41,0,10.96,3.55,10.96,10.96l0.3,70.49c0,18.66,8.29,29.32,24.29,29.32
				c18.07,0,26.66-11.26,26.66-29.32v-70.49c0-7.41,3.55-10.96,10.96-10.96h25.47c7.41,0,10.96,3.55,10.96,10.96v126.18
				c0,7.41-3.56,10.96-10.96,10.96h-19.55c-7.41,0-10.96-3.55-10.96-10.96V254.59z"/>
			<path class="st4" d="M996.24,152.11c8.29-15.7,24.59-25.77,47.98-25.77c5.04,0,10.66,0,15.11,2.37c4.15,2.07,5.92,4.74,5.92,8
				c0,1.78-0.59,3.55-1.48,5.63l-8.29,19.84c-2.07,5.33-4.74,7.11-8.89,7.11c-0.89,0-2.07,0-3.56-0.3
				c-4.74-0.89-9.48-1.78-14.22-1.78c-18.96,0-26.66,11.26-26.66,28.73v70.49c0,7.41-3.56,10.96-10.96,10.96h-25.47
				c-7.41,0-10.96-3.55-10.96-10.96V140.26c0-7.41,3.55-10.96,10.96-10.96h19.55c7.41,0,10.96,3.55,10.96,10.96V152.11z"/>
			<path class="st4" d="M1162.99,261.4c-10.37,14.22-27.84,19.55-47.1,19.55c-34.36,0-58.94-20.14-58.94-52.13
				c0-32.29,26.07-50.95,59.54-50.95c16.59,0,27.55,2.96,40.58,7.41v-2.67c-0.3-15.11-10.07-24.88-30.21-24.88
				c-13.33,0-26.36,2.37-38.51,7.41c-1.48,0.59-2.67,0.89-3.85,0.89c-3.85,0-6.81-2.96-8.29-7.11l-3.55-9.77
				c-0.59-1.78-0.89-3.55-0.89-5.33c0-3.55,1.78-6.52,5.63-8.59c14.81-7.11,33.17-9.48,49.46-9.48c47.39,0,75.53,26.36,75.53,62.5
				v78.2c0,7.41-3.55,10.96-10.96,10.96h-17.18c-7.11,0-11.26-3.26-11.26-10.37V261.4z M1157.07,212.83
				c-9.48-3.85-16.88-5.33-27.55-5.33c-14.81,0-27.25,7.7-27.25,21.33c0,13.33,12.14,21.33,25.47,21.33
				c17.77,0,29.32-10.07,29.32-24.58V212.83z"/>
			<path class="st4" d="M1275.83,266.44c0,7.41-3.56,10.96-10.96,10.96h-25.47c-7.41,0-10.96-3.55-10.96-10.96V76.87
				c0-6.81,2.37-10.07,9.18-11.85l27.25-6.81c1.19-0.3,2.37-0.59,3.56-0.59c4.74,0,7.41,3.26,7.41,8.89V266.44z"/>
			<path class="st4" d="M1473.69,79.54c3.85-7.41,7.41-9.48,15.7-9.48h32.58c8.59,0,12.44,3.85,12.44,12.44v182.46
				c0,8.59-3.85,12.44-12.44,12.44h-23.99c-8.59,0-12.44-3.85-12.44-12.44v-117l-37.62,87.67c-3.26,7.41-6.52,9.77-14.81,9.77
				h-25.18c-8.29,0-11.55-2.37-14.81-9.77l-37.62-87.67v117c0,8.59-3.85,12.44-12.44,12.44h-23.99c-8.59,0-12.44-3.85-12.44-12.44
				V82.5c0-8.59,3.85-12.44,12.44-12.44h32.58c8.29,0,11.85,2.07,15.4,9.48l53.31,105.74L1473.69,79.54z"/>
			<path class="st4" d="M1599.56,217.27c0.89,7.7,3.85,15.11,9.77,20.14c6.22,5.33,15.99,8,24.58,8c8,0,15.4-1.18,22.21-3.55
				c4.74-1.78,9.18-3.85,13.62-6.81c2.07-1.48,4.15-2.07,5.92-2.07c2.67,0,5.04,0.89,7.41,2.96l10.96,8.89
				c3.26,2.67,4.74,5.33,4.74,7.7c0,2.67-1.78,5.33-4.74,7.7c-16.29,13.92-38.8,21.03-61.31,20.73c-45.32,0-78.49-31.99-78.49-77.6
				c0-45.61,33.17-77.6,78.49-77.6c45.91,0,76.42,33.77,76.42,80.57v1.18c0,7.11-4.44,9.77-10.96,9.77H1599.56z M1663.83,189.13
				c-0.59-8.59-3.85-15.99-9.48-21.62c-5.92-5.63-13.03-8.59-21.62-8.59c-8.59,0-16.59,3.26-22.21,8.89
				c-5.63,5.33-8.89,12.74-10.07,21.33H1663.83z"/>
			<path class="st4" d="M1830.58,77.76c0-7.11,2.37-10.37,9.18-12.14l24.88-7.11c1.48-0.3,2.67-0.59,3.85-0.59
				c4.44,0,7.11,3.26,7.11,8.89v199.64c0,7.41-3.56,10.96-10.96,10.96h-17.18c-6.81,0-10.96-2.96-10.96-10.37v-7.7
				c-12.14,14.22-29.03,21.62-48.58,21.62c-44.73,0-72.86-30.8-72.86-77.6c0-46.8,28.14-77.6,72.86-77.6
				c15.4,0,31.69,6.52,42.65,18.07V77.76z M1832.66,203.35c0-21.62-14.51-36.73-35.25-36.73c-20.73,0-35.84,15.11-35.84,36.73
				c0,21.62,15.1,36.73,35.84,36.73C1818.14,240.08,1832.66,224.97,1832.66,203.35z"/>
		</g>
	</g>
</g>
</svg>
