<?xml version="1.0" encoding="utf-8"?>
<!-- Generator: Adobe Illustrator 30.6.0, SVG Export Plug-In . SVG Version: 9.03 Build 0)  -->
<svg version="1.0" id="Camada_1" xmlns="http://www.w3.org/2000/svg" xmlns:xlink="http://www.w3.org/1999/xlink" x="0px" y="0px"
	 viewBox="0 0 1920 428" style="enable-background:new 0 0 1920 428;" xml:space="preserve">
<style type="text/css">
	.st0{fill:#DE8F6E;}
	.st1{fill:#00C2C2;}
	.st2{fill:#006DDF;}
	.st3{fill:#BCE784;}
	.st4{fill:#FFFFFF;}
</style>
<g>
	<path class="st0" d="M537.84,357.2c0-12.69,9.59-22.34,22.27-22.34c7.51,0,14.44,3.58,19.01,10.19l-6.81,4.86
		c-3.39-5.11-7.8-7.06-12.21-7.06c-7.89,0-13.42,5.94-13.42,14.35c0,8.44,5.75,14.35,13.64,14.35c7.22,0,11.28-4.25,12.27-8.85
		h-13.13v-7.45h21.86c0.13,1.12,0.16,2.4,0.16,3.48c0,11.15-7.86,20.8-21.15,20.8C547.68,379.54,537.84,369.89,537.84,357.2z"/>
	<path class="st0" d="M593.94,335.51h30.87v7.48h-22.24v10h19.3v7.48h-19.3v10.99h22.72v7.45h-31.35V335.51z"/>
	<path class="st0" d="M641.72,364.68c2.04,4.19,5.94,7.06,11.15,7.06c4.16,0,7.45-2.01,7.45-4.82c0-2.88-3.23-4.41-8.4-6.04
		c-8.34-2.62-15.15-5.18-15.15-13.55c0-8.18,8.02-12.46,15.37-12.46c7.86,0,13.29,4.6,16.04,9.43l-6.65,4.73
		c-1.89-3.16-5.02-6.36-9.62-6.36c-3.36,0-6.33,1.79-6.33,4.63c0,3.48,3.16,3.99,8.6,5.91c8.15,2.88,14.92,5.08,14.92,13.64
		c0,8.5-8.59,12.69-16.33,12.69c-8.37,0-14.83-4.38-17.42-10.26L641.72,364.68z"/>
	<path class="st0" d="M676.15,335.51h35.73v7.67h-13.55v35.72h-8.59v-35.72h-13.58V335.51z"/>
	<path class="st0" d="M729.47,335.51h9.91l17.54,43.39h-9.2l-3.2-8.5h-20.13l-3.23,8.5h-9.2L729.47,335.51z M723.04,327.71
		c2.3-4.09,4.86-5.85,7.57-5.85c3.1,0,5.56,2.84,7.92,2.84c1.6,0,2.65-0.83,3.93-2.68l3.36,3.16c-2.24,3.99-4.67,5.69-7.8,5.69
		c-2.75,0-4.57-2.08-6.71-2.52c-0.64-0.13-1.22-0.19-1.76-0.1c-1.15,0.19-2.11,1.31-3.03,2.52L723.04,327.71z M742.02,363.53
		l-7.57-19.01l-7.64,19.01H742.02z"/>
	<path class="st0" d="M763.26,357.3c0-13.13,9.58-22.43,22.72-22.43c13.2,0,22.75,9.33,22.75,22.43c0,13.1-9.55,22.24-22.75,22.24
		C772.84,379.54,763.26,370.4,763.26,357.3z M786.01,371.52c8.12,0,13.87-5.75,13.87-14.25c0-8.44-5.75-14.35-13.87-14.35
		c-8.05,0-13.87,5.91-13.87,14.35C772.14,365.77,777.99,371.52,786.01,371.52z"/>
	<path class="st0" d="M842.25,335.54h17.96c12.88,0,22.4,9.3,22.4,21.7c0,12.46-9.52,21.7-22.4,21.7h-17.96V335.54z M850.88,371.49
		h9.07c8.24,0,13.84-6.2,13.84-14.25c0-7.99-5.59-14.28-13.84-14.28h-9.07V371.49z"/>
	<path class="st0" d="M895.4,335.51h30.87v7.48h-22.24v10h19.3v7.48h-19.3v10.99h22.72v7.45H895.4V335.51z"/>
	<path class="st0" d="M963.91,364.68c2.05,4.19,5.94,7.06,11.15,7.06c4.15,0,7.44-2.01,7.44-4.82c0-2.88-3.23-4.41-8.4-6.04
		c-8.34-2.62-15.14-5.18-15.14-13.55c0-8.18,8.02-12.46,15.37-12.46c7.86,0,13.29,4.6,16.04,9.43l-6.64,4.73
		c-1.89-3.16-5.02-6.36-9.62-6.36c-3.35,0-6.33,1.79-6.33,4.63c0,3.48,3.16,3.99,8.59,5.91c8.15,2.88,14.92,5.08,14.92,13.64
		c0,8.5-8.59,12.69-16.33,12.69c-8.37,0-14.83-4.38-17.42-10.26L963.91,364.68z"/>
	<path class="st0" d="M998.25,378.9l17.51-43.39h9.9l17.54,43.39h-9.2l-3.2-8.5h-20.13l-3.23,8.5H998.25z M1028.31,363.53
		l-7.57-19.01l-7.64,19.01H1028.31z"/>
	<path class="st0" d="M1051.94,362.41v-26.9h8.6v26.71c0,5.88,4.22,9.59,9.97,9.59c5.75,0,9.97-3.71,9.97-9.59v-26.71h8.59v26.9
		c0,10.42-7.44,17.13-18.56,17.13C1059.39,379.54,1051.94,372.83,1051.94,362.41z M1067.47,331.83l5.02-10.67h9.33l-7.44,10.67
		H1067.47z"/>
	<path class="st0" d="M1104.2,335.54h17.96c12.88,0,22.4,9.3,22.4,21.7c0,12.46-9.52,21.7-22.4,21.7h-17.96V335.54z M1112.83,371.49
		h9.07c8.24,0,13.84-6.2,13.84-14.25c0-7.99-5.59-14.28-13.84-14.28h-9.07V371.49z"/>
	<path class="st0" d="M1157.36,335.51h30.87v7.48h-22.24v10h19.3v7.48h-19.3v10.99h22.72v7.45h-31.35V335.51z"/>
	<path class="st0" d="M1219.35,357.2c0-12.69,9.59-22.34,22.27-22.34c7.99,0,15.18,4.06,19.43,10.83l-6.81,4.86
		c-2.91-4.79-7.09-7.7-12.62-7.7c-7.89,0-13.42,5.94-13.42,14.35c0,8.44,5.75,14.35,13.64,14.35c5.34,0,9.52-2.43,13.13-7.48
		l6.36,4.6c-4.19,7.03-11.63,10.86-19.49,10.86C1229.22,379.54,1219.35,369.89,1219.35,357.2z"/>
	<path class="st0" d="M1270.17,357.3c0-13.13,9.58-22.43,22.72-22.43c13.2,0,22.75,9.33,22.75,22.43c0,13.1-9.55,22.24-22.75,22.24
		C1279.76,379.54,1270.17,370.4,1270.17,357.3z M1292.92,371.52c8.12,0,13.87-5.75,13.87-14.25c0-8.44-5.75-14.35-13.87-14.35
		c-8.05,0-13.87,5.91-13.87,14.35C1279.06,365.77,1284.9,371.52,1292.92,371.52z"/>
	<path class="st0" d="M1328.44,335.51h9.14l13.99,28.89l13.96-28.89h9.14v43.39h-8.63v-26.62l-11.69,23.71h-5.59l-11.69-23.71v26.62
		h-8.63V335.51z"/>
	<path class="st0" d="M1411.01,335.51h30.87v7.48h-22.24v10h19.3v7.48h-19.3v10.99h22.72v7.45h-31.35V335.51z"/>
	<path class="st0" d="M1465.95,356.66l-15.4-21.15h10.32l10.35,14.76l10.35-14.76h10.35l-15.4,21.15l16.29,22.24h-10.35
		l-11.25-15.91l-11.21,15.91h-10.35L1465.95,356.66z"/>
	<path class="st0" d="M1497.82,357.2c0-12.69,9.59-22.34,22.27-22.34c7.99,0,15.18,4.06,19.43,10.83l-6.81,4.86
		c-2.91-4.79-7.09-7.7-12.62-7.7c-7.89,0-13.42,5.94-13.42,14.35c0,8.44,5.75,14.35,13.64,14.35c5.34,0,9.52-2.43,13.13-7.48
		l6.36,4.6c-4.19,7.03-11.63,10.86-19.49,10.86C1507.7,379.54,1497.82,369.89,1497.82,357.2z"/>
	<path class="st0" d="M1551.46,335.51h30.87v7.48h-22.24v10h19.3v7.48h-19.3v10.99h22.72v7.45h-31.35V335.51z"/>
	<path class="st0" d="M1627.56,378.9h-31.98v-43.39h8.63v35.95h23.36V378.9z"/>
	<path class="st0" d="M1669.46,335.51v7.48h-22.24v10h19.3v7.48h-19.3v10.99h22.72v7.45h-31.35v-43.39H1669.46z M1643.55,331.9
		l9.17-11.82h4.31l9.17,11.82h-7.25l-4.09-5.69l-4.09,5.69H1643.55z"/>
	<path class="st0" d="M1682.71,378.9v-43.39h7.83l23.99,29.78v-29.78h8.63v43.39h-7.96l-23.87-29.46v29.46H1682.71z"/>
	<path class="st0" d="M1735.93,357.2c0-12.69,9.59-22.34,22.27-22.34c7.99,0,15.18,4.06,19.43,10.83l-6.81,4.86
		c-2.91-4.79-7.09-7.7-12.62-7.7c-7.89,0-13.42,5.94-13.42,14.35c0,8.44,5.75,14.35,13.64,14.35c5.34,0,9.52-2.43,13.13-7.48
		l6.36,4.6c-4.19,7.03-11.63,10.86-19.49,10.86C1745.8,379.54,1735.93,369.89,1735.93,357.2z"/>
	<path class="st0" d="M1798.19,378.9h-8.63v-43.39h8.63V378.9z"/>
	<path class="st0" d="M1808.49,378.9l17.51-43.39h9.91l17.54,43.39h-9.2l-3.19-8.5h-20.13l-3.23,8.5H1808.49z M1838.56,363.53
		l-7.57-19.01l-7.64,19.01H1838.56z"/>
</g>
<g>
	
		<rect x="138.89" y="146.82" transform="matrix(0.7071 0.7071 -0.7071 0.7071 248.0376 -98.0967)" class="st1" width="207.08" height="207.08"/>
	<g>
		<polygon class="st2" points="388.86,250.36 242.43,103.93 388.86,250.36 		"/>
		<path class="st2" d="M242.43,103.93l-41.9-41.9C160.09,21.6,94.54,21.6,54.1,62.03s-40.43,105.99,0,146.43l41.9,41.9
			L242.43,103.93z"/>
	</g>
	<path class="st3" d="M431.25,61.54c-40.43-40.43-105.99-40.43-146.43,0l-42.39,42.39l146.43,146.43l42.39-42.39
		C471.68,167.53,471.68,101.98,431.25,61.54z"/>
</g>
<g>
	<g>
		<path class="st4" d="M584.2,267.35c0,8.44-3.78,12.23-12.23,12.23h-23.58c-8.44,0-12.23-3.78-12.23-12.23V88.03
			c0-8.44,3.78-12.23,12.23-12.23h60.55c37.84,0,85.88,14.55,85.88,73.94c0,59.38-48.03,71.61-86.17,71.61H584.2V267.35z
			 M611.85,183.22c18.92,0,36.1-9.02,36.1-33.48c0-24.45-17.18-33.19-36.1-33.19l-27.65-0.29v66.66L611.85,183.22z"/>
		<path class="st4" d="M751.58,268.81c0,7.28-3.49,10.77-10.77,10.77h-25.03c-7.28,0-10.77-3.49-10.77-10.77V82.5
			c0-6.7,2.33-9.9,9.02-11.64l26.78-6.7c1.17-0.29,2.33-0.58,3.49-0.58c4.66,0,7.28,3.2,7.28,8.73V268.81z"/>
		<path class="st4" d="M879.95,257.16c-8.15,16.01-24.45,25.91-47.16,25.91c-34.93,0-55.6-24.16-55.6-61.71V144.8
			c0-7.28,3.49-10.77,10.77-10.77H813c7.28,0,10.77,3.49,10.77,10.77l0.29,69.28c0,18.34,8.15,28.82,23.87,28.82
			c17.76,0,26.2-11.06,26.2-28.82V144.8c0-7.28,3.49-10.77,10.77-10.77h25.03c7.28,0,10.77,3.49,10.77,10.77v124.01
			c0,7.28-3.49,10.77-10.77,10.77h-19.21c-7.28,0-10.77-3.49-10.77-10.77V257.16z"/>
		<path class="st4" d="M988.81,156.44c8.15-15.43,24.16-25.33,47.16-25.33c4.95,0,10.48,0,14.85,2.33c4.08,2.04,5.82,4.66,5.82,7.86
			c0,1.75-0.58,3.49-1.45,5.53l-8.15,19.5c-2.04,5.24-4.66,6.99-8.73,6.99c-0.87,0-2.04,0-3.49-0.29
			c-4.66-0.87-9.32-1.75-13.97-1.75c-18.63,0-26.2,11.06-26.2,28.24v69.28c0,7.28-3.49,10.77-10.77,10.77h-25.03
			c-7.28,0-10.77-3.49-10.77-10.77V144.8c0-7.28,3.49-10.77,10.77-10.77h19.21c7.28,0,10.77,3.49,10.77,10.77V156.44z"/>
		<path class="st4" d="M1152.7,263.86c-10.19,13.97-27.36,19.21-46.29,19.21c-33.77,0-57.93-19.79-57.93-51.23
			c0-31.73,25.62-50.07,58.51-50.07c16.3,0,27.07,2.91,39.88,7.28v-2.62c-0.29-14.85-9.9-24.45-29.69-24.45
			c-13.1,0-25.91,2.33-37.84,7.28c-1.45,0.58-2.62,0.87-3.78,0.87c-3.78,0-6.7-2.91-8.15-6.99l-3.49-9.61
			c-0.58-1.75-0.87-3.49-0.87-5.24c0-3.49,1.75-6.4,5.53-8.44c14.56-6.99,32.6-9.32,48.61-9.32c46.58,0,74.23,25.91,74.23,61.42
			v76.85c0,7.28-3.49,10.77-10.77,10.77h-16.88c-6.99,0-11.06-3.2-11.06-10.19V263.86z M1146.88,216.12
			c-9.32-3.78-16.59-5.24-27.07-5.24c-14.56,0-26.78,7.57-26.78,20.96c0,13.1,11.93,20.96,25.03,20.96
			c17.47,0,28.82-9.9,28.82-24.16V216.12z"/>
		<path class="st4" d="M1263.6,268.81c0,7.28-3.49,10.77-10.77,10.77h-25.03c-7.28,0-10.77-3.49-10.77-10.77V82.5
			c0-6.7,2.33-9.9,9.02-11.64l26.78-6.7c1.17-0.29,2.33-0.58,3.49-0.58c4.66,0,7.28,3.2,7.28,8.73V268.81z"/>
		<path class="st4" d="M1458.06,85.12c3.78-7.28,7.28-9.32,15.43-9.32h32.02c8.44,0,12.23,3.78,12.23,12.23v179.32
			c0,8.44-3.78,12.23-12.23,12.23h-23.58c-8.44,0-12.23-3.78-12.23-12.23V152.36l-36.97,86.17c-3.2,7.28-6.4,9.61-14.56,9.61h-24.74
			c-8.15,0-11.35-2.33-14.56-9.61l-36.97-86.17v114.99c0,8.44-3.79,12.23-12.23,12.23h-23.58c-8.44,0-12.23-3.78-12.23-12.23V88.03
			c0-8.44,3.79-12.23,12.23-12.23h32.02c8.15,0,11.64,2.04,15.14,9.32l52.4,103.92L1458.06,85.12z"/>
		<path class="st4" d="M1581.76,220.48c0.87,7.57,3.78,14.85,9.61,19.8c6.11,5.24,15.72,7.86,24.16,7.86
			c7.86,0,15.14-1.16,21.83-3.49c4.66-1.75,9.02-3.78,13.39-6.7c2.04-1.46,4.08-2.04,5.82-2.04c2.62,0,4.95,0.87,7.28,2.91
			l10.77,8.73c3.2,2.62,4.66,5.24,4.66,7.57c0,2.62-1.75,5.24-4.66,7.57c-16.01,13.68-38.13,20.67-60.26,20.38
			c-44.54,0-77.14-31.44-77.14-76.27c0-44.83,32.6-76.27,77.14-76.27c45.12,0,75.11,33.19,75.11,79.18v1.16
			c0,6.99-4.37,9.61-10.77,9.61H1581.76z M1644.93,192.83c-0.58-8.44-3.78-15.72-9.32-21.25c-5.82-5.53-12.81-8.44-21.25-8.44
			s-16.3,3.2-21.83,8.73c-5.53,5.24-8.73,12.52-9.9,20.96H1644.93z"/>
		<path class="st4" d="M1808.81,83.37c0-6.99,2.33-10.19,9.03-11.93l24.45-6.99c1.46-0.29,2.62-0.58,3.78-0.58
			c4.37,0,6.99,3.2,6.99,8.73v196.2c0,7.28-3.49,10.77-10.77,10.77h-16.88c-6.7,0-10.77-2.91-10.77-10.19v-7.57
			c-11.94,13.97-28.53,21.25-47.74,21.25c-43.96,0-71.61-30.27-71.61-76.27c0-45.99,27.65-76.27,71.61-76.27
			c15.14,0,31.15,6.4,41.92,17.76V83.37z M1810.85,206.8c0-21.25-14.26-36.1-34.64-36.1c-20.38,0-35.22,14.85-35.22,36.1
			c0,21.25,14.85,36.1,35.22,36.1C1796.59,242.9,1810.85,228.05,1810.85,206.8z"/>
	</g>
</g>
</svg>
